<svg width="44" height="44" viewBox="0 0 44 44" fill="none" xmlns="http://www.w3.org/2000/svg">
    <path d="M29.5 15.5L29.0982 22.0062M14.5 15.5L15.1046 25.5248C15.2594 28.0922 15.3369 29.3759 15.9787 30.299C16.296 30.7554 16.7048 31.1407 17.179 31.4302C17.8503 31.84 18.6811 31.9631 20 32"
          stroke="white" stroke-width="1.5" stroke-linecap="round"/>
    <path d="M30 25L23 31.9995M30 32L23 25.0005" stroke="white" stroke-width="1.5" stroke-linecap="round"
          stroke-linejoin="round"/>
    <path d="M13 15.5H31M26.0557 15.5L25.3731 14.0917C24.9196 13.1563 24.6928 12.6885 24.3017 12.3968C24.215 12.3321 24.1231 12.2745 24.027 12.2247C23.5939 12 23.0741 12 22.0345 12C20.9688 12 20.436 12 19.9957 12.2341C19.8981 12.286 19.805 12.3459 19.7173 12.4132C19.3216 12.7167 19.1006 13.2015 18.6586 14.1713L18.0529 15.5"
          stroke="white" stroke-width="1.5" stroke-linecap="round"/>
</svg>
