<svg width="37" height="30" viewBox="0 0 37 30" fill="none" xmlns="http://www.w3.org/2000/svg">
    <path d="M22.3629 22.7349C22.3629 24.1194 22.7735 25.4728 23.5426 26.6239C24.3118 27.7751 25.405 28.6723 26.6841 29.2021C27.9632 29.7319 29.3707 29.8705 30.7285 29.6004C32.0864 29.3303 33.3337 28.6636 34.3127 27.6847C35.2916 26.7057 35.9583 25.4584 36.2284 24.1006C36.4985 22.7427 36.3599 21.3352 35.8301 20.0561C35.3003 18.7771 34.4031 17.6838 33.2519 16.9146C32.1008 16.1455 30.7474 15.7349 29.3629 15.7349C27.5064 15.7349 25.7259 16.4724 24.4132 17.7852C23.1004 19.0979 22.3629 20.8784 22.3629 22.7349ZM34.3629 22.7349C34.3629 23.7238 34.0697 24.6905 33.5203 25.5128C32.9709 26.335 32.19 26.9759 31.2763 27.3543C30.3627 27.7328 29.3574 27.8318 28.3875 27.6389C27.4176 27.4459 26.5266 26.9697 25.8274 26.2705C25.1281 25.5712 24.6519 24.6803 24.459 23.7104C24.2661 22.7405 24.3651 21.7351 24.7435 20.8215C25.122 19.9079 25.7628 19.127 26.5851 18.5776C27.4073 18.0282 28.374 17.7349 29.3629 17.7349C30.689 17.7349 31.9608 18.2617 32.8984 19.1994C33.8361 20.1371 34.3629 21.4088 34.3629 22.7349Z"
          fill="#BFBFBF"/>
    <path d="M27.9029 19.7349C27.816 19.6285 27.7081 19.5412 27.5859 19.4784C27.4638 19.4156 27.33 19.3786 27.1929 19.3698C27.0558 19.361 26.9184 19.3805 26.7892 19.4271C26.66 19.4738 26.5417 19.5465 26.4419 19.6409C26.342 19.7352 26.2627 19.8491 26.2088 19.9755C26.1549 20.1018 26.1277 20.2379 26.1287 20.3753C26.1297 20.5127 26.1591 20.6483 26.2148 20.7739C26.2706 20.8994 26.3517 21.0121 26.4529 21.1049L28.1029 22.8649L26.4529 24.6249C26.3214 24.7667 26.2338 24.9437 26.2007 25.1343C26.1677 25.325 26.1907 25.5211 26.2669 25.6989C26.3431 25.8767 26.4693 26.0286 26.6301 26.1362C26.7909 26.2438 26.9795 26.3024 27.1729 26.3049C27.3093 26.3057 27.4445 26.2787 27.57 26.2254C27.6955 26.1721 27.8088 26.0936 27.9029 25.9949L29.4829 24.3249L31.0629 25.9949C31.1559 26.0924 31.2676 26.1701 31.3913 26.2234C31.515 26.2767 31.6482 26.3044 31.7829 26.3049C31.9772 26.3043 32.1672 26.2471 32.3295 26.1402C32.4918 26.0334 32.6195 25.8816 32.6969 25.7034C32.7743 25.5252 32.7982 25.3283 32.7655 25.1368C32.7328 24.9452 32.6451 24.7674 32.5129 24.6249L30.8529 22.8349L32.5129 21.0749C32.6443 20.8769 32.7008 20.6387 32.6725 20.4029C32.6442 20.167 32.5328 19.9489 32.3583 19.7877C32.1839 19.6265 31.9577 19.5326 31.7204 19.523C31.483 19.5133 31.25 19.5884 31.0629 19.7349L29.4829 21.4049L27.9029 19.7349Z"
          fill="#BFBFBF"/>
    <path d="M18.3629 23.2649C18.9457 23.2634 19.5275 23.2166 20.1029 23.1249C20.2343 23.1052 20.3604 23.0599 20.4742 22.9914C20.588 22.9229 20.6872 22.8328 20.7661 22.726C20.845 22.6192 20.9022 22.4979 20.9342 22.369C20.9663 22.2402 20.9726 22.1062 20.9529 21.9749C20.9332 21.8436 20.8879 21.7174 20.8194 21.6037C20.751 21.4899 20.6608 21.3907 20.554 21.3118C20.4472 21.2328 20.3259 21.1757 20.197 21.1436C20.0682 21.1116 19.9343 21.1052 19.8029 21.1249C19.3263 21.1967 18.845 21.2335 18.3629 21.2349C16.4815 21.2468 14.6389 20.6998 13.0688 19.6631C11.4986 18.6265 10.2717 17.147 9.54343 15.4122C8.81518 13.6774 8.61847 11.7654 8.97823 9.91862C9.33798 8.07186 10.238 6.37352 11.5642 5.03891C12.8904 3.70431 14.583 2.79354 16.4274 2.42209C18.2718 2.05064 20.185 2.23524 21.9244 2.95247C23.6638 3.66971 25.1511 4.88728 26.1976 6.45082C27.2442 8.01437 27.8029 9.85345 27.8029 11.7349C27.8052 12.1902 27.7718 12.6449 27.7029 13.0949C27.6659 13.3575 27.7346 13.624 27.894 13.8359C28.0534 14.0478 28.2904 14.1878 28.5529 14.2249C28.8155 14.262 29.082 14.1933 29.2939 14.0339C29.5059 13.8745 29.6458 13.6375 29.6829 13.3749C29.763 12.8319 29.8031 12.2838 29.8029 11.7349C29.797 9.45918 29.1159 7.23637 27.846 5.34788C26.5761 3.45939 24.7744 1.99014 22.6691 1.12613C20.5637 0.262118 18.2493 0.0421893 16.0189 0.494186C13.7885 0.946183 11.7423 2.04978 10.1395 3.66528C8.53657 5.28077 7.44904 7.33552 7.01454 9.56941C6.58003 11.8033 6.81809 14.1159 7.69857 16.2144C8.57906 18.3129 10.0624 20.103 11.9608 21.3581C13.8591 22.6132 16.0872 23.2768 18.3629 23.2649Z"
          fill="#BFBFBF"/>
    <path d="M1.6429 29.3549C1.90524 29.3538 2.15664 29.2497 2.3429 29.0649L9.6429 21.7349C9.73614 21.6417 9.8101 21.531 9.86056 21.4092C9.91102 21.2873 9.93699 21.1568 9.93699 21.0249C9.93699 20.893 9.91102 20.7625 9.86056 20.6407C9.8101 20.5188 9.73614 20.4081 9.6429 20.3149C9.54966 20.2217 9.43897 20.1477 9.31715 20.0972C9.19533 20.0468 9.06476 20.0208 8.9329 20.0208C8.80104 20.0208 8.67047 20.0468 8.54865 20.0972C8.42683 20.1477 8.31614 20.2217 8.2229 20.3149L0.932901 27.6449C0.791872 27.7848 0.695691 27.9635 0.656621 28.1582C0.617552 28.353 0.637363 28.5549 0.71353 28.7384C0.789697 28.9218 0.918768 29.0784 1.08429 29.1882C1.24981 29.298 1.44428 29.3561 1.6429 29.3549Z"
          fill="#BFBFBF"/>
</svg>
