<svg width="44" height="44" viewBox="0 0 44 44" fill="none" xmlns="http://www.w3.org/2000/svg">
    <rect width="44" height="44" rx="22" fill="#0CC509"/>
    <path d="M23.7289 13.4325L25.4889 16.9525C25.7289 17.4425 26.3689 17.9125 26.9089 18.0025L30.0989 18.5325C32.1389 18.8725 32.6189 20.3525 31.1489 21.8125L28.6689 24.2925C28.2489 24.7125 28.0189 25.5225 28.1489 26.1025L28.8589 29.1725C29.4189 31.6025 28.1289 32.5425 25.9789 31.2725L22.9889 29.5025C22.4489 29.1825 21.5589 29.1825 21.0089 29.5025L18.0189 31.2725C15.8789 32.5425 14.5789 31.5925 15.1389 29.1725L15.8489 26.1025C15.9789 25.5225 15.7489 24.7125 15.3289 24.2925L12.8489 21.8125C11.3889 20.3525 11.8589 18.8725 13.8989 18.5325L17.0889 18.0025C17.6189 17.9125 18.2589 17.4425 18.4989 16.9525L20.2589 13.4325C21.2189 11.5225 22.7789 11.5225 23.7289 13.4325Z"
          fill="white"/>
</svg>
